<svg width="24" height="24" viewBox="0 0 24 24" fill="none" xmlns="http://www.w3.org/2000/svg">
<path d="M15.9436 6.64645L15.59 6.29289L15.2364 6.64645L12 9.88289L8.76355 6.64645L8.41 6.29289L8.05645 6.64645L6.64645 8.05645L6.29289 8.41L6.64645 8.76355L9.88289 12L6.64645 15.2364L6.29289 15.59L6.64645 15.9436L8.05645 17.3536L8.41 17.7071L8.76355 17.3536L12 14.1171L15.2364 17.3536L15.59 17.7071L15.9436 17.3536L17.3536 15.9436L17.7071 15.59L17.3536 15.2364L14.1171 12L17.3536 8.76355L17.7071 8.41L17.3536 8.05645L15.9436 6.64645ZM12 2.5C17.2539 2.5 21.5 6.74614 21.5 12C21.5 17.2539 17.2539 21.5 12 21.5C6.74614 21.5 2.5 17.2539 2.5 12C2.5 6.74614 6.74614 2.5 12 2.5Z" fill="currentColor" stroke="currentColor"/>
</svg>
