<svg width="24" height="24" viewBox="0 0 24 24" fill="none" xmlns="http://www.w3.org/2000/svg">
<path d="M6.5 20C4.98333 20 3.68767 19.475 2.613 18.425C1.53767 17.375 1 16.0917 1 14.575C1 13.275 1.39167 12.1167 2.175 11.1C2.95833 10.0833 3.98333 9.43334 5.25 9.15001C5.53333 7.95001 6.24167 6.80834 7.375 5.72501C8.50833 4.64167 9.71667 4.10001 11 4.10001C11.55 4.10001 12.021 4.29567 12.413 4.68701C12.8043 5.07901 13 5.55001 13 6.10001V12.15L13.9 11.275C14.0833 11.0917 14.3127 11 14.588 11C14.8627 11 15.1 11.1 15.3 11.3C15.4833 11.4833 15.575 11.7167 15.575 12C15.575 12.2833 15.4833 12.5167 15.3 12.7L12.7 15.3C12.6 15.4 12.4917 15.4707 12.375 15.512C12.2583 15.554 12.1333 15.575 12 15.575C11.8667 15.575 11.7417 15.554 11.625 15.512C11.5083 15.4707 11.4 15.4 11.3 15.3L8.7 12.7C8.51667 12.5167 8.421 12.2873 8.413 12.012C8.40433 11.7373 8.5 11.5 8.7 11.3C8.88333 11.1167 9.11233 11.0207 9.387 11.012C9.66233 11.004 9.9 11.0917 10.1 11.275L11 12.15V6.10001C9.73333 6.33334 8.75 6.94567 8.05 7.93701C7.35 8.92901 7 9.95001 7 11H6.5C5.53333 11 4.70833 11.3417 4.025 12.025C3.34167 12.7083 3 13.5333 3 14.5C3 15.4667 3.34167 16.2917 4.025 16.975C4.70833 17.6583 5.53333 18 6.5 18H18.5C19.2 18 19.7917 17.7583 20.275 17.275C20.7583 16.7917 21 16.2 21 15.5C21 14.8 20.7583 14.2083 20.275 13.725C19.7917 13.2417 19.2 13 18.5 13H17V11C17 10.2 16.8167 9.45401 16.45 8.76201C16.0833 8.07067 15.6 7.48334 15 7.00001V4.67501C16.2333 5.25834 17.2083 6.12101 17.925 7.26301C18.6417 8.40434 19 9.65001 19 11C20.15 11.1333 21.1043 11.629 21.863 12.487C22.621 13.3457 23 14.35 23 15.5C23 16.75 22.5627 17.8127 21.688 18.688C20.8127 19.5627 19.75 20 18.5 20H6.5Z" fill="#3F3D56"/>
</svg>
