<svg width="24" height="25" viewBox="0 0 24 25" fill="none" xmlns="http://www.w3.org/2000/svg">
<path d="M19 3.5C19.5304 3.5 20.0391 3.71071 20.4142 4.08579C20.7893 4.46086 21 4.96957 21 5.5V19.5C21 20.0304 20.7893 20.5391 20.4142 20.9142C20.0391 21.2893 19.5304 21.5 19 21.5H5C4.46957 21.5 3.96086 21.2893 3.58579 20.9142C3.21071 20.5391 3 20.0304 3 19.5V5.5C3 4.96957 3.21071 4.46086 3.58579 4.08579C3.96086 3.71071 4.46957 3.5 5 3.5H19ZM16.7 9.85C16.92 9.64 16.92 9.29 16.7 9.08L15.42 7.8C15.3703 7.7479 15.3106 7.70643 15.2444 7.6781C15.1782 7.64976 15.107 7.63515 15.035 7.63515C14.963 7.63515 14.8918 7.64976 14.8256 7.6781C14.7594 7.70643 14.6997 7.7479 14.65 7.8L13.65 8.8L15.7 10.85L16.7 9.85ZM7 15.44V17.5H9.06L15.12 11.44L13.06 9.38L7 15.44Z" fill="#3F3D56"/>
</svg>
