<svg width="155" height="155" viewBox="0 0 155 155" fill="currentColor" xmlns="http://www.w3.org/2000/svg">
<path fill-rule="evenodd" clip-rule="evenodd" d="M59.3607 32.1933V50.5266H77.694H82.694V87.1933C82.694 88.9614 80.7414 91.9073 80.7414 91.9073C80.7414 91.9073 77.7955 93.86 76.0274 93.86H36.0274C34.2593 93.86 32.5636 93.1576 31.3133 91.9073C30.0631 90.6571 29.3607 88.9614 29.3607 87.1933V50.5266V33.86C29.3607 33.86 32.3274 27.1933 36.0274 27.1933H62.694L59.3607 32.1933Z" />
<path fill-rule="evenodd" clip-rule="evenodd" d="M63.9727 30H82.306L82.306 48.3333V53.3333L118.973 53.3333C120.741 53.3333 123.687 51.3807 123.687 51.3807C123.687 51.3807 125.639 48.4348 125.639 46.6667V6.66667C125.639 4.89856 124.937 3.20287 123.687 1.95262C122.436 0.702381 120.741 2.40856e-06 118.973 2.33127e-06L82.306 7.28523e-07L65.6393 0C65.6393 0 58.9727 2.96667 58.9727 6.66667L58.9727 33.3333L63.9727 30Z" />
<path d="M0.812 136.036C0.488 136.144 0.344 136.396 0.74 136.864C5.816 142.984 12.08 142.3 14.24 139.816C15.824 137.98 16.004 136.324 14.636 135.352C12.62 133.912 8.012 132.004 8.12 129.664C8.3 125.164 17.156 119.656 18.38 120.916C19.244 121.816 16.544 124.804 15.788 126.532C15.032 128.224 15.464 129.34 16.148 130.024C16.544 130.42 16.76 130.24 16.94 129.916C17.444 129.016 18.488 127.18 19.424 125.92C19.964 125.164 20.828 123.76 20.468 122.32C20.216 121.312 19.568 120.124 18.668 119.296C17.48 118.216 15.752 118.504 14.024 119.224C10.82 120.592 5.24 124.804 5.24 129.736C5.24 133.444 10.928 135.676 12.836 137.296C13.34 137.728 13.52 138.484 12.908 139.168C12.44 139.564 11.684 139.816 10.676 139.816C8.336 139.816 5.888 137.944 4.448 136.792C3.476 136 2 135.676 0.812 136.036ZM23.1992 126.856C21.6512 129.7 20.1392 132.724 19.3832 134.524C17.6552 138.664 19.5632 141.328 21.9392 141.4C24.8192 141.508 27.1952 138.34 27.6632 137.296C28.0232 136.468 28.2032 135.82 28.0232 135.244C27.8792 134.74 27.4832 134.812 27.2672 135.244C25.9352 137.944 23.8832 140.5 22.2632 140.428C20.7512 140.356 20.3552 138.124 21.5432 135.496C22.9112 132.472 24.9632 128.98 26.3672 126.568C27.2672 126.424 28.3832 126.316 29.1752 126.424C29.7152 126.424 29.8592 126.172 29.6072 125.74C29.3192 125.272 28.7792 124.624 27.3752 124.66C28.2392 122.788 28.2392 121.6 27.8432 120.592C27.6632 120.16 27.3032 120.124 26.9792 120.592C26.3672 121.384 25.3592 123.076 24.2432 125.056C23.2712 125.164 22.2632 125.236 21.2552 125.2C20.7152 125.164 20.4992 125.416 20.8592 125.92C21.1472 126.316 21.9752 126.856 23.1992 126.856ZM50.0144 137.8C50.4464 136.864 50.3024 135.892 50.1224 135.46C49.9784 135.136 49.7264 135.208 49.5824 135.532C48.4304 138.16 46.5944 140.572 45.1544 140.464C44.0024 140.392 43.5704 138.988 44.2544 137.008C44.9024 135.1 46.6304 132.652 48.3224 130.744C49.4024 129.52 48.5024 127.828 47.8544 127.072C47.5664 126.712 47.2424 126.82 46.7744 127.144C45.4064 128.08 44.1464 128.692 42.8864 128.872C43.6064 126.964 44.2544 124.336 42.9944 124.372C41.5544 124.408 38.0264 129.16 40.6904 130.312C39.9344 131.68 38.8904 132.364 37.8824 132.544C37.8824 132.328 37.9544 132.148 37.9544 131.968C38.1344 129.34 37.0904 129.124 36.2264 128.008C35.4704 127.036 34.8944 126.676 33.8144 126.784C31.6544 126.964 29.3864 128.98 28.0184 131.464C26.4704 134.308 25.9304 137.44 27.4784 139.564C28.8824 141.472 30.7544 141.544 32.0504 141.112C34.7144 140.248 36.9464 136.54 37.6664 133.48C39.6464 133.408 41.1224 132.184 42.1304 130.564C43.2824 130.564 44.8664 130.204 46.4864 129.16C44.9744 130.924 42.7064 133.588 41.9864 136C41.0864 138.952 42.2024 141.364 44.9744 141.508C46.9544 141.616 49.0424 139.96 50.0144 137.8ZM35.6504 131.968C34.9664 131.392 34.6424 130.492 34.7504 129.592C34.8944 128.548 35.6864 128.26 35.8304 129.448C35.9024 130.06 35.8664 130.924 35.6504 131.968ZM35.3264 133.012C35.0744 133.912 34.6424 134.884 34.0664 135.964C32.2664 139.24 30.0344 140.536 29.0984 139.708C28.1624 138.88 28.6664 135.604 30.2144 132.868C31.0064 131.5 32.0144 130.312 32.9864 129.484C33.0224 130.78 33.9224 132.22 35.3264 133.012ZM63.2515 137.368C63.8635 136.432 63.9715 135.604 63.8995 135.28C63.8275 134.92 63.5035 134.956 63.3235 135.208C61.8835 137.188 59.7595 139.24 56.9515 140.752C58.4635 137.26 60.6595 132.94 61.7395 130.852C62.6755 129.016 62.3875 127.468 61.8835 126.82C61.5595 126.532 61.3075 126.604 60.9835 127.072C59.7235 128.908 58.1755 132.148 56.6275 134.812C54.7915 137.944 52.9915 140.248 51.5875 140.14C50.7595 140.068 50.6875 138.808 51.4075 137.044C52.0915 135.352 52.8835 133.876 54.1795 131.788C55.5115 129.664 55.7275 128.152 54.8635 127C54.6115 126.64 54.2515 126.604 53.9635 127C51.6235 130.24 49.8595 133.804 49.0675 136.108C48.2395 138.484 48.3115 141.112 50.9035 141.328C52.3435 141.436 53.7115 140.5 54.8275 139.348C54.4315 140.212 54.0715 141.112 53.7115 141.94C50.1475 143.344 47.0875 145.504 46.0075 148.744C45.2875 150.868 46.0075 152.128 46.7275 153.208C47.4115 154.216 48.0955 154.216 48.7795 153.964C51.7675 152.812 54.3235 147.016 56.3395 142.192C59.3275 140.968 61.8475 139.6 63.2515 137.368ZM53.0995 143.452C50.8675 148.744 47.9155 152.668 47.4475 151.984C46.7995 151.084 48.4195 146.152 53.0995 143.452ZM78.4336 122.464C75.7336 126.496 72.9976 131.752 71.5576 135.784C70.7296 138.088 71.0896 138.664 71.6296 139.456C72.0976 140.14 72.7456 140.752 73.4656 141.112C74.2576 141.508 75.1216 141.544 76.4896 141.292C78.5056 140.932 81.2056 139.672 82.7896 137.944C84.3376 136.252 84.3736 134.128 83.6176 133.012C83.1496 132.328 82.5736 131.824 81.8896 131.5C84.5536 130.348 86.4616 128.548 87.5056 127.216C88.7296 125.632 89.4136 123.616 88.7656 121.204C88.1176 118.756 86.3536 118.18 84.5176 118.288C82.1056 118.432 78.8656 120.196 76.3456 120.412C75.9136 120.448 75.8056 120.628 75.9856 121.024C76.2376 121.6 76.9936 122.392 78.4336 122.464ZM76.7776 130.492C77.8216 128.656 78.8656 126.964 79.5856 125.632C80.4856 123.976 80.7376 122.896 80.6656 122.104C83.1496 121.312 86.7136 119.656 87.4336 121.528C88.3336 123.976 83.9056 128.836 76.7776 130.492ZM79.5496 132.292C82.8256 132.472 82.8256 134.092 81.4936 135.748C79.9456 137.656 76.8496 139.132 74.5456 139.42C73.3936 139.564 72.9976 139.132 73.3936 137.872C73.9336 136.072 74.8336 134.164 75.8056 132.292C76.3096 132.544 77.0296 132.652 78.0376 132.544C78.5416 132.472 79.0456 132.4 79.5496 132.292ZM93.0443 137.944C92.7563 140.032 93.6923 141.508 96.0323 141.508C98.1563 141.508 100.388 139.672 101.432 137.656C101.936 136.648 101.9 135.676 101.756 135.388C101.612 135.064 101.288 135.1 101.108 135.424C99.7043 137.944 97.8683 140.32 96.3563 140.392C95.0603 140.464 94.9163 138.952 95.8523 136.9C96.6803 135.064 98.4803 132.364 99.2723 130.744C100.136 128.944 99.8483 127.36 99.3083 126.712C99.0203 126.352 98.7683 126.424 98.4083 126.928C97.2563 128.476 96.2123 130.96 93.9443 134.632C92.0003 137.764 90.0203 140.284 88.6163 140.176C87.7883 140.104 87.6803 138.808 88.4363 137.044C89.1923 135.316 89.9123 133.876 91.2443 131.752C92.5403 129.7 92.7203 128.08 91.9283 126.892C91.6403 126.568 91.2803 126.532 90.9923 126.928C88.6523 130.204 86.8163 133.732 86.0243 136.108C85.2323 138.484 85.3043 141.148 87.8603 141.328C89.8763 141.472 91.7843 139.636 93.0443 137.944ZM108.895 124.336C108.427 123.364 107.383 122.932 106.807 123.544C106.231 124.156 106.051 125.236 106.627 126.208C107.167 127.144 108.175 127.252 108.643 126.748C109.111 126.244 109.363 125.272 108.895 124.336ZM103.027 141.4C105.043 141.4 107.311 139.888 108.391 137.656C108.823 136.756 108.931 136 108.643 135.424C108.499 135.136 108.247 135.1 108.067 135.424C106.987 137.908 105.007 140.284 103.387 140.356C102.235 140.428 102.163 139.024 103.027 136.936C103.783 135.136 105.295 132.688 106.051 131.104C106.915 129.304 106.627 127.756 106.087 127.18C105.799 126.856 105.547 126.964 105.223 127.396C103.891 129.268 101.515 133.516 100.615 136.144C99.607 139.096 100.291 141.4 103.027 141.4ZM111.208 133.66C114.412 131.572 118.444 127.252 119.56 122.824C119.992 121.132 119.776 119.8 118.732 118.864C118.228 118.396 117.724 118.468 117.184 119.044C113.512 122.86 109.408 129.376 108.076 135.64C107.248 139.528 108.58 141.256 111.064 141.328C113.944 141.4 116.572 138.412 117.076 137.332C117.472 136.468 117.616 135.676 117.436 135.1C117.292 134.596 116.896 134.632 116.644 135.1C115.24 137.872 112.72 140.464 110.992 140.32C109.372 140.176 109.768 137.188 111.208 133.66ZM111.856 132.112C112.108 131.536 112.396 130.96 112.72 130.384C115.204 125.776 117.868 121.78 118.336 122.068C118.804 122.356 116.788 128.116 111.856 132.112ZM125.597 136.972C127.397 133.156 130.853 127.216 132.581 124.12C134.093 121.42 134.201 119.872 133.697 118.684C133.517 118.216 133.193 118.18 132.833 118.684C131.537 120.52 128.801 125.416 126.857 129.124C126.893 127.792 126.173 126.676 124.697 126.676C122.897 126.676 120.017 128.296 117.173 132.472C114.221 136.792 114.869 141.364 118.217 141.364C119.909 141.364 121.529 140.032 122.681 138.592C122.681 140.284 123.653 141.364 125.597 141.472C127.577 141.58 129.809 139.672 130.781 137.692C131.249 136.72 131.213 135.784 131.069 135.46C130.925 135.172 130.673 135.172 130.493 135.496C129.233 137.98 127.289 140.392 125.813 140.464C124.589 140.536 124.625 139.06 125.597 136.972ZM125.273 128.512C126.317 128.548 125.777 130.816 123.689 134.812C121.997 138.088 120.053 140.212 118.613 140.176C117.209 140.14 117.605 137.008 119.549 133.912C121.529 130.744 124.157 128.476 125.273 128.512ZM153.735 137.692C154.167 136.684 154.095 135.748 153.915 135.352C153.771 135.028 153.519 135.1 153.375 135.388C152.223 138.052 150.387 140.428 148.875 140.356C147.795 140.32 147.363 138.88 147.975 136.9C148.587 134.956 150.423 132.508 152.115 130.636C153.195 129.448 152.295 127.72 151.575 126.928C151.323 126.568 150.999 126.748 150.567 127.036C149.163 127.972 147.903 128.548 146.643 128.728C147.543 126.388 147.903 124.192 146.787 124.228C145.275 124.3 141.747 129.088 144.519 130.24C142.539 134.812 138.579 140.5 134.619 140.32C132.783 140.248 131.883 137.908 133.035 134.632C135.555 136.648 137.967 135.748 139.659 133.552C141.099 131.716 141.459 129.592 140.847 128.728C140.271 127.936 139.623 127.432 138.723 126.892C136.923 125.848 133.251 127.864 130.983 132.328C128.643 136.936 130.191 141.4 134.763 141.328C139.047 141.256 142.935 136.72 145.923 130.456C147.039 130.456 148.659 130.096 150.243 129.088C148.695 130.816 146.535 133.48 145.779 135.892C144.879 138.808 145.959 141.256 148.695 141.4C150.675 141.508 152.835 139.852 153.735 137.692ZM133.359 133.84C133.467 133.66 133.539 133.408 133.647 133.228C135.303 129.916 138.255 127.648 139.047 128.332C139.515 128.728 138.759 130.6 137.607 132.076C136.527 133.444 135.123 134.92 133.359 133.84Z" />
</svg>
